<svg width="991" height="776" viewBox="0 0 991 776" fill="none" xmlns="http://www.w3.org/2000/svg">
<g clip-path="url(#clip0)">
<g opacity="0.94">
<path d="M186.766 529.83C186.766 529.83 220.901 123.185 363.82 113.168C506.739 103.421 524.223 506.818 524.223 506.818C524.223 506.818 629.678 85.282 752.616 113.709C875.554 142.407 895.258 545.533 895.258 545.533L186.766 541.472V529.83Z" fill="#D9D9D9"/>
<path d="M186.766 529.83C186.766 529.83 220.901 123.185 363.82 113.168C506.739 103.421 524.223 506.818 524.223 506.818C524.223 506.818 629.678 85.282 752.616 113.709C875.554 142.407 895.258 545.533 895.258 545.533L186.766 541.472V529.83Z" stroke="black"/>
</g>
<path d="M584.998 291.853H735.688C763.717 291.853 786.195 314.054 786.195 341.127V455.919C786.195 483.263 808.951 505.193 836.703 505.193C864.731 505.193 887.21 482.993 887.21 455.919V415.58" stroke="#4D4D4D" stroke-width="9.0267" stroke-miterlimit="10" stroke-linecap="round" stroke-linejoin="round"/>
<path d="M520.337 236.623V186.537C520.337 144.844 508.404 111.272 470.385 111.272C432.366 111.272 401.284 145.114 401.284 186.537V227.147C401.284 255.575 380.193 278.587 354.384 278.587H287.781" stroke="#4D4D4D" stroke-width="8.5293" stroke-miterlimit="10" stroke-linecap="round" stroke-linejoin="round"/>
<path d="M735.965 540.388C735.965 541.201 735.965 542.284 735.688 543.096C735.688 543.908 735.41 544.72 735.41 545.532C735.133 546.345 735.133 547.428 734.855 548.24C734.578 549.052 734.578 549.864 734.3 550.676C734.023 551.489 733.745 552.301 733.467 553.384C733.19 554.196 732.913 555.008 732.635 555.82C732.357 556.633 732.08 557.445 731.525 558.528C731.247 559.34 730.97 560.152 730.415 560.964C730.137 561.777 729.582 562.86 729.027 563.672C728.75 564.484 728.195 565.296 727.917 565.838C727.362 566.65 726.807 567.733 726.252 568.545C725.697 569.357 725.42 569.899 724.865 570.711C724.032 571.794 723.477 572.877 722.645 573.96C722.089 574.501 721.812 575.313 721.257 575.855C720.424 576.938 719.314 578.291 718.482 579.374C717.927 579.916 717.649 580.457 717.094 580.999C716.817 581.27 716.539 581.54 716.539 581.811C715.429 582.894 714.319 583.977 713.209 585.331C712.932 585.601 712.654 585.872 712.377 586.143C710.989 587.496 709.601 588.85 708.214 589.933C707.936 590.204 707.659 590.475 707.381 590.745C706.271 591.828 705.161 592.64 703.774 593.723C702.941 594.536 701.831 595.348 700.721 595.889C699.888 596.702 698.778 597.243 697.946 598.055C696.836 598.867 695.726 599.409 694.616 600.221C693.506 600.763 692.673 601.575 691.563 602.116C690.453 602.928 689.343 603.47 688.233 604.282C687.123 604.824 686.013 605.636 684.903 606.177C683.793 606.989 682.405 607.531 681.295 608.343C679.63 609.155 678.242 609.968 676.577 610.78C673.525 612.404 670.472 613.758 667.142 615.382C666.309 615.924 665.199 616.194 664.367 616.465C661.869 617.548 659.372 618.631 656.874 619.714C656.041 619.985 655.209 620.526 654.376 620.797C651.046 622.151 647.716 623.234 644.108 624.317C643.553 624.587 642.998 624.587 642.166 624.858C639.113 625.941 636.338 626.753 633.285 627.565C632.175 627.836 630.788 628.378 629.678 628.648C628.013 629.19 626.347 629.461 624.682 630.002C623.295 630.273 621.907 630.814 620.52 631.085C618.855 631.626 617.19 631.897 615.524 632.168C614.137 632.439 612.749 632.709 611.084 633.251C609.419 633.522 607.477 634.063 605.811 634.334C604.424 634.605 603.036 634.875 601.371 635.146C599.706 635.417 597.764 635.687 596.099 635.958C594.711 636.229 593.323 636.5 591.936 636.5C588.051 637.041 584.165 637.583 580.28 638.124C579.725 638.124 579.17 638.124 578.615 638.395C575.285 638.666 571.677 639.207 568.347 639.478C566.96 639.478 565.85 639.748 564.462 639.748C562.242 640.019 560.022 640.019 557.802 640.29C556.414 640.29 555.027 640.561 553.639 640.561C551.419 640.561 548.921 640.831 546.701 640.831C545.314 640.831 544.204 640.831 542.816 641.102C540.873 641.102 538.931 641.102 536.711 641.102C535.323 641.102 533.936 641.102 532.548 641.102C530.328 641.102 528.385 641.102 526.165 641.102C524.778 641.102 523.668 641.102 522.28 641.102C520.337 641.102 518.395 641.102 516.452 640.831C515.065 640.831 513.677 640.831 512.29 640.561C510.069 640.561 508.127 640.29 505.907 640.29C504.797 640.29 503.409 640.29 502.299 640.019C499.801 639.748 497.026 639.478 494.529 639.478C493.696 639.478 493.141 639.478 492.309 639.207C488.978 638.936 485.648 638.395 482.596 638.124C482.041 638.124 481.486 637.853 480.931 637.853C478.155 637.583 475.38 637.041 472.605 636.77C471.495 636.5 470.385 636.5 469.275 636.229C467.055 635.958 465.112 635.417 462.892 635.146C461.782 634.875 460.672 634.604 459.562 634.604C457.342 634.063 454.844 633.792 452.624 633.251C451.237 632.98 450.127 632.709 448.739 632.439C446.519 631.897 444.576 631.626 442.634 631.085C441.524 630.814 440.414 630.543 439.026 630.273C435.696 629.461 432.643 628.648 429.313 627.565C428.758 627.295 428.203 627.295 427.648 627.024C424.04 625.941 420.433 624.858 416.825 623.504C415.437 622.963 414.05 622.421 412.385 621.88C411.275 621.338 410.165 621.068 409.055 620.526C407.39 619.985 405.724 619.173 404.337 618.631C403.227 618.09 402.394 617.819 401.284 617.277C399.619 616.465 397.954 615.924 396.011 615.112C395.179 614.841 394.346 614.299 393.514 614.029C391.016 612.946 388.519 611.592 386.021 610.509C345.504 590.204 325.246 563.401 325.523 536.598V576.938C325.523 603.741 345.504 630.543 386.021 650.849C388.519 652.202 391.016 653.285 393.514 654.368C394.346 654.639 395.179 655.18 396.011 655.451C397.677 656.263 399.342 657.076 401.284 657.617C402.394 658.158 403.227 658.429 404.337 658.971C406.002 659.512 407.39 660.324 409.055 660.866C410.165 661.407 411.275 661.678 412.385 662.22C413.495 662.49 414.605 663.032 415.715 663.302C415.992 663.302 416.547 663.573 416.825 663.573C420.433 664.656 424.04 666.01 427.648 667.093C428.203 667.364 428.758 667.364 429.313 667.634C432.643 668.446 435.696 669.529 439.026 670.342C439.581 670.612 440.136 670.612 440.691 670.883C441.246 671.154 442.079 671.154 442.634 671.425C444.576 671.966 446.796 672.508 448.739 672.778C450.127 673.049 451.237 673.32 452.624 673.59C454.844 674.132 457.342 674.403 459.562 674.944C460.395 675.215 461.227 675.215 462.06 675.486C462.337 675.486 462.615 675.486 462.892 675.486C465.112 675.756 467.055 676.298 469.275 676.569C470.385 676.839 471.495 676.839 472.605 677.11C475.38 677.652 478.155 677.922 480.931 678.193C481.486 678.193 482.041 678.464 482.318 678.464C485.648 678.734 488.978 679.276 492.031 679.547C492.864 679.547 493.419 679.547 494.251 679.817C496.749 680.088 499.524 680.359 502.022 680.359C502.022 680.359 502.022 680.359 502.299 680.359C503.409 680.359 504.519 680.359 505.629 680.63C507.849 680.63 509.792 680.9 512.012 680.9C513.4 680.9 514.787 680.9 516.175 681.171C518.117 681.171 520.06 681.442 522.003 681.442C522.28 681.442 522.28 681.442 522.558 681.442C523.668 681.442 524.778 681.442 525.888 681.442C528.108 681.442 530.05 681.442 532.27 681.442C533.658 681.442 535.046 681.442 536.433 681.442C538.376 681.442 540.318 681.442 542.538 681.442C542.816 681.442 543.371 681.442 543.648 681.442C544.481 681.442 545.591 681.442 546.424 681.442C548.644 681.442 551.141 681.171 553.361 681.171C554.749 681.171 556.137 680.9 557.524 680.9C559.744 680.63 561.964 680.63 564.185 680.359C565.017 680.359 565.85 680.359 566.405 680.088C566.96 680.088 567.515 680.088 568.07 679.817C571.4 679.547 575.007 679.276 578.338 678.734C578.893 678.734 579.448 678.734 580.003 678.464C583.888 677.922 587.773 677.381 591.658 676.839C591.936 676.839 592.491 676.839 592.768 676.569C593.878 676.298 594.711 676.298 595.821 676.027C597.486 675.756 599.429 675.486 601.094 675.215C602.481 674.944 603.869 674.673 605.534 674.403C607.199 674.132 609.142 673.59 610.807 673.32C612.194 673.049 613.582 672.778 615.247 672.237C616.912 671.966 618.577 671.425 620.242 671.154C621.63 670.883 623.017 670.342 624.405 670.071C626.07 669.529 627.735 669.259 629.4 668.717C630.233 668.446 630.788 668.446 631.62 668.176C632.175 667.905 632.73 667.905 633.285 667.634C636.338 666.822 639.391 665.739 642.166 664.927C642.721 664.656 643.276 664.656 644.108 664.385C647.438 663.302 651.046 661.949 654.376 660.866C655.209 660.595 656.041 660.054 656.874 659.783C659.372 658.7 661.869 657.617 664.367 656.534C665.199 656.263 666.309 655.722 667.142 655.451C670.472 654.097 673.525 652.473 676.577 651.119C677.41 650.578 678.242 650.307 679.075 649.766C679.908 649.224 680.463 648.953 681.295 648.412C682.683 647.6 683.793 647.058 684.903 646.246C686.013 645.705 687.123 644.892 688.233 644.351C689.343 643.539 690.453 642.997 691.563 642.185C692.673 641.644 693.506 640.831 694.616 640.29C695.726 639.478 696.836 638.936 697.946 638.124C698.778 637.312 699.888 636.77 700.721 635.958C701.831 635.146 702.664 634.334 703.774 633.792C704.051 633.522 704.606 633.251 704.884 632.98C705.716 632.439 706.549 631.626 707.104 631.085C707.381 630.814 707.659 630.543 707.936 630.273C709.324 628.919 710.711 627.565 712.099 626.482C712.377 626.212 712.654 625.941 712.932 625.67C714.042 624.587 715.152 623.504 716.262 622.151C716.539 621.88 716.817 621.609 717.094 621.338L717.372 621.068C717.649 620.526 718.204 620.255 718.482 619.714C719.592 618.631 720.424 617.277 721.257 616.194C721.812 615.653 722.089 614.841 722.645 614.299C723.477 613.216 724.31 612.133 724.865 611.05C725.142 610.78 725.42 610.509 725.42 610.238C725.697 609.697 725.975 609.426 726.252 608.885C726.807 608.072 727.362 606.989 727.917 606.177C728.472 605.365 728.75 604.553 729.027 604.011C729.582 603.199 729.86 602.116 730.415 601.304C730.692 600.763 730.692 600.492 730.97 600.221C731.247 599.95 731.247 599.409 731.525 599.138C731.802 598.326 732.08 597.514 732.635 596.431C732.913 595.619 733.19 594.806 733.467 593.994C733.745 593.182 734.023 592.37 734.3 591.287C734.3 590.745 734.578 590.475 734.578 589.933C734.578 589.662 734.578 589.392 734.855 588.85C735.133 588.038 735.133 586.955 735.41 586.143C735.41 585.331 735.688 584.518 735.688 583.706C735.688 582.894 735.965 581.811 735.965 580.999C735.965 580.457 735.965 579.916 735.965 579.374C735.965 578.833 735.965 578.291 735.965 577.75V537.41C736.243 538.223 735.965 539.306 735.965 540.388Z" fill="#606060"/>
<path d="M736.121 537.29C736.256 480.023 644.547 433.392 531.284 433.137C418.02 432.883 326.092 479.101 325.956 536.368C325.821 593.635 417.53 640.266 530.794 640.521C644.058 640.775 735.986 594.557 736.121 537.29Z" fill="#939191"/>
<path d="M521.725 292.936H510.902V337.337H521.725V292.936Z" fill="#37424F"/>
<path d="M553.639 292.936H542.816V337.337H553.639V292.936Z" fill="#37424F"/>
<path d="M565.572 327.049H497.026V461.063H565.572V327.049Z" fill="#19AFE3"/>
<path d="M520.615 336.795V458.897" stroke="white" stroke-width="1.1001" stroke-miterlimit="10"/>
<path d="M541.151 336.795V458.897" stroke="white" stroke-width="1.1001" stroke-miterlimit="10"/>
<path d="M592.213 478.931C591.658 479.202 591.381 479.202 590.826 479.202C590.548 479.202 590.548 479.202 590.271 479.202C589.993 479.202 589.716 479.202 589.438 479.202C589.161 479.202 588.883 479.202 588.606 479.202C588.328 479.202 588.328 479.202 588.051 479.202C587.496 479.202 587.218 479.202 586.663 479.202L502.299 476.765C502.022 476.765 501.744 476.765 501.467 476.765C500.911 476.765 500.634 476.765 500.079 476.495C499.524 476.495 499.246 476.224 498.691 476.224C498.136 476.224 497.859 475.953 497.304 475.953C496.749 475.682 496.471 475.683 495.916 475.412C495.361 475.141 495.084 474.87 494.529 474.6C493.974 474.329 493.419 474.058 492.864 473.517C492.031 472.975 491.476 472.434 490.921 471.892C489.533 470.809 488.701 469.456 487.591 467.831L445.964 393.65C445.686 393.108 445.409 392.567 445.131 392.025C444.854 391.484 444.854 390.942 444.576 390.401C444.576 390.13 444.299 389.859 444.299 389.589C444.299 389.318 444.299 389.047 444.021 389.047C444.021 388.506 443.744 388.235 443.744 387.693C443.744 387.423 443.744 387.423 443.744 387.152C443.744 386.61 443.744 386.069 443.744 385.527V385.257C443.744 384.715 443.744 383.903 443.744 383.362C443.744 383.091 443.744 383.091 443.744 382.82C443.744 382.279 444.021 381.466 444.021 380.925C444.299 380.384 444.299 379.842 444.576 379.301C444.576 379.03 444.576 379.03 444.854 378.759C445.131 378.218 445.409 377.676 445.686 376.864L488.423 305.119C488.701 304.578 489.256 304.036 489.533 303.495C491.199 301.329 493.696 299.434 496.471 298.351L472.328 307.826C469.553 308.909 467.332 310.534 465.39 312.97C464.835 313.512 464.557 314.053 464.28 314.595L421.543 386.34C421.265 386.881 420.988 387.152 420.71 387.693C420.71 387.693 420.71 387.964 420.433 387.964C420.433 388.235 420.433 388.235 420.155 388.506C420.155 388.776 419.878 388.776 419.878 389.047C419.878 389.318 419.6 389.859 419.6 390.13C419.6 390.671 419.323 390.942 419.323 391.484C419.323 391.754 419.323 391.754 419.323 392.025C419.323 392.296 419.323 392.296 419.323 392.567V392.837C419.323 393.379 419.323 393.65 419.323 394.191V394.462C419.323 394.732 419.323 395.274 419.323 395.545C419.323 395.815 419.323 395.815 419.323 396.086C419.323 396.357 419.323 396.357 419.323 396.628C419.323 396.898 419.323 396.898 419.323 397.169C419.323 397.44 419.6 397.711 419.6 398.252C419.6 398.523 419.6 398.794 419.878 398.794C419.878 398.794 419.878 398.794 419.878 399.064C419.878 399.335 420.155 399.335 420.155 399.606C420.433 400.147 420.433 400.689 420.71 401.23V401.501C420.988 402.042 421.265 402.313 421.543 402.855L463.17 477.036C464.002 478.661 465.112 480.014 466.5 481.097C467.055 481.639 467.887 482.18 468.442 482.722C468.997 482.992 469.552 483.534 470.108 483.805C470.663 484.075 470.94 484.346 471.495 484.617C472.05 484.887 472.328 484.887 472.883 485.158C473.438 485.429 473.715 485.429 474.27 485.429C474.825 485.429 475.103 485.7 475.658 485.7C476.213 485.7 476.49 485.7 477.045 485.97C477.323 485.97 477.6 485.97 477.878 485.97L562.242 488.407C562.519 488.407 562.519 488.407 562.797 488.407C563.074 488.407 563.352 488.407 563.63 488.407C563.907 488.407 563.907 488.407 564.185 488.407C564.185 488.407 564.185 488.407 564.462 488.407C564.74 488.407 565.017 488.407 565.295 488.407C565.572 488.407 565.85 488.407 566.127 488.407C566.127 488.407 566.127 488.407 566.405 488.407H566.682C567.237 488.407 567.515 488.136 568.07 488.136H568.347C568.625 488.136 568.902 487.866 569.18 487.866L593.323 478.39C593.046 478.661 592.491 478.661 592.213 478.931Z" fill="#0F5394"/>
<path d="M617.19 552.03L641.333 542.554L617.19 552.03Z" fill="#234672"/>
<path d="M615.802 553.655C614.137 555.821 611.639 557.716 609.142 558.799L633.285 549.323C635.783 548.24 638.281 546.616 639.946 544.179C640.501 543.638 640.778 543.096 641.056 542.555L616.912 552.03C616.635 552.572 616.357 553.113 615.802 553.655Z" fill="#0F5394"/>
<path d="M700.444 411.789L617.19 552.03L641.056 542.555L724.587 402.313L700.444 411.789Z" fill="#0F5394"/>
<path d="M700.721 395.004C703.774 400.148 703.496 406.645 700.721 411.518L617.467 551.759C614.414 556.903 608.864 559.882 603.036 559.611L438.193 554.738C432.366 554.467 426.815 551.218 423.763 546.074L342.174 400.96C339.121 395.816 339.399 389.318 342.174 384.445L425.705 244.204C428.758 239.06 434.308 236.082 440.136 236.352L604.979 241.226C610.807 241.496 616.357 244.745 619.41 249.889L700.721 395.004ZM619.965 409.353C623.017 404.209 623.017 397.982 619.965 392.567L578.338 318.385C575.285 313.241 569.735 309.722 563.907 309.722L479.543 307.285C473.438 307.014 467.887 310.263 464.835 315.137L422.098 386.881C419.045 392.025 419.045 398.252 422.098 403.667L463.725 477.849C466.777 483.263 472.328 486.512 478.155 486.512L562.519 488.949C568.625 489.22 574.175 485.971 577.228 481.097L619.965 409.353Z" fill="#009FE2"/>
<path d="M726.807 393.65C726.807 393.379 726.807 392.837 726.807 392.567C726.807 392.296 726.807 392.296 726.807 392.025C726.807 391.754 726.807 391.755 726.807 391.484C726.807 391.213 726.807 391.213 726.807 390.942C726.807 390.672 726.53 390.401 726.53 389.859C726.53 389.589 726.53 389.318 726.252 389.318C726.252 389.318 726.252 389.318 726.252 389.047C726.252 388.776 725.975 388.776 725.975 388.506C725.697 387.964 725.697 387.423 725.42 386.881V386.611C725.142 386.069 724.865 385.798 724.865 385.257L643.276 240.142C642.998 239.33 642.443 238.789 641.888 238.247C641.611 237.977 641.611 237.977 641.333 237.706C641.056 237.164 640.501 236.894 640.223 236.623L639.946 236.352C639.668 236.352 639.668 236.081 639.391 236.081C639.113 235.811 638.558 235.54 638.281 234.999L638.003 234.728C637.726 234.728 637.726 234.457 637.448 234.457C637.171 234.186 636.893 234.186 636.893 233.916L636.615 233.645C636.338 233.374 636.06 233.374 635.783 233.103C635.783 233.103 635.505 233.103 635.505 232.833C634.95 232.562 634.673 232.562 634.118 232.291H633.84H633.563C633.285 232.291 633.285 232.291 633.008 232.02C632.453 232.02 632.175 231.75 631.62 231.75C631.065 231.75 630.788 231.75 630.233 231.479C629.955 231.479 629.678 231.479 629.4 231.479L614.137 237.435L629.4 231.479L464.557 226.606C464.28 226.606 464.28 226.606 464.002 226.606C463.725 226.606 463.447 226.606 463.17 226.606C462.892 226.606 462.892 226.606 462.615 226.606C462.615 226.606 462.615 226.606 462.337 226.606C462.06 226.606 461.782 226.606 461.782 226.606C461.505 226.606 461.227 226.606 460.95 226.606C460.95 226.606 460.95 226.606 460.672 226.606H460.395C459.84 226.606 459.562 226.876 459.007 226.876H458.729C458.452 226.876 458.174 227.147 457.897 227.147L433.753 236.623C434.031 236.352 434.586 236.352 434.863 236.352C435.418 236.081 435.696 236.081 436.251 236.081C436.528 236.081 436.528 236.081 436.806 236.081C437.083 236.081 437.361 236.081 437.638 236.081C437.916 236.081 438.193 236.081 438.471 236.081C438.749 236.081 438.749 236.081 439.026 236.081C439.581 236.081 439.859 236.081 440.414 236.081L605.257 240.955C606.089 240.955 606.644 240.955 607.477 241.225C608.032 241.225 608.864 241.496 609.419 241.767H609.697C610.252 242.038 610.807 242.308 611.362 242.308C611.362 242.308 611.639 242.308 611.639 242.579C612.194 242.85 612.472 243.121 613.027 243.391C613.304 243.391 613.582 243.662 613.582 243.933C613.859 244.204 614.137 244.204 614.414 244.474C614.692 244.745 615.247 245.016 615.524 245.557C615.802 245.828 616.079 245.828 616.079 246.099C616.357 246.369 616.912 246.911 617.19 247.182C617.467 247.452 617.467 247.452 617.745 247.723C618.3 248.265 618.577 249.077 619.132 249.618L700.721 394.733C700.999 395.274 701.276 395.815 701.554 396.357C701.831 396.898 701.831 397.44 702.109 397.981C702.109 398.252 702.386 398.523 702.386 398.794C702.386 399.064 702.386 399.335 702.664 399.335C702.664 399.877 702.941 400.147 702.941 400.689C702.941 400.959 702.941 400.959 702.941 401.23C702.941 401.772 702.941 402.313 702.941 402.855V403.125C702.941 403.667 702.941 404.479 702.941 405.021V405.291C702.941 405.833 702.664 406.645 702.664 407.186C702.664 407.186 702.664 407.186 702.664 407.457C702.386 407.999 702.386 408.54 702.109 409.082C702.109 409.352 702.109 409.352 701.831 409.623C701.554 410.165 701.276 410.706 700.999 411.247L725.142 401.772C725.42 401.23 725.697 400.959 725.975 400.418C725.975 400.418 725.975 400.147 726.252 400.147C726.252 399.877 726.252 399.877 726.53 399.606C726.53 399.335 726.807 399.335 726.807 399.064C726.807 398.794 727.085 398.252 727.085 397.981C727.085 397.981 727.085 397.981 727.085 397.711C727.085 397.169 727.362 396.898 727.362 396.357C727.362 396.086 727.362 396.086 727.362 395.816C727.362 395.545 727.362 395.545 727.362 395.274V395.003C727.362 394.462 727.362 394.191 727.362 393.65C726.807 393.92 726.807 393.92 726.807 393.65Z" fill="#0F5394"/>
<path d="M597.209 66.8719C598.319 63.0816 602.481 60.645 606.367 61.9987C608.587 62.8109 610.252 64.706 610.252 69.0378C610.252 79.8672 599.706 107.753 589.438 106.941C578.893 106.129 546.701 84.199 546.701 84.199L551.141 78.5135C551.141 78.5135 583.333 99.6309 587.218 96.1114C590.271 93.404 594.433 75.5355 597.209 66.8719Z" fill="#76CEBA"/>
<path d="M610.252 73.9111C604.701 93.1334 595.543 107.482 589.438 107.212C586.941 106.941 583.333 105.858 579.448 103.963" stroke="#476978" stroke-width="0.2883" stroke-miterlimit="10"/>
<path d="M581.39 95.57C584.166 96.653 586.386 96.9237 587.218 96.1115C590.271 93.4041 592.213 83.3869 594.711 74.7234" stroke="#476978" stroke-width="0.2883" stroke-miterlimit="10"/>
<path d="M550.309 80.4093C550.309 80.4093 549.476 75.2653 546.701 73.0994C543.926 70.6628 541.983 67.9554 541.428 67.9554C540.596 67.9554 543.371 73.6409 543.371 73.6409C543.371 73.6409 537.821 71.2043 533.658 65.5188C533.658 65.5188 527.83 70.9335 535.323 76.8897C542.816 82.8459 547.811 82.8459 547.811 82.8459L550.309 80.4093Z" fill="#F0B291"/>
<path d="M609.697 92.05C609.697 42.2346 566.682 2.43645 514.787 5.95602C470.94 8.93411 435.418 43.859 432.921 86.6353C430.978 117.77 446.241 145.656 470.107 162.441C479.543 168.939 487.313 180.039 487.313 191.41C487.313 208.466 498.691 222.545 515.897 223.357C534.491 224.169 546.979 208.196 546.979 190.327C546.979 180.039 555.582 172.188 565.017 167.044C591.381 152.424 609.697 124.268 609.697 92.05Z" fill="#6FD6FA"/>
<path d="M574.175 240.955L466.5 237.977C466.5 223.628 478.433 211.986 493.141 211.986H544.204C560.854 211.986 574.175 224.981 574.175 240.955Z" fill="#37424F"/>
<path d="M546.701 212.527H490.088C487.591 212.527 485.371 210.362 485.371 207.925V207.383C485.371 204.947 487.591 202.781 490.088 202.781H546.701C549.199 202.781 551.419 204.947 551.419 207.383V207.925C551.419 210.362 549.199 212.527 546.701 212.527Z" fill="#BECFE3"/>
<path d="M444.854 84.7404C444.854 84.7404 454.289 20.576 522.835 17.5979" stroke="white" stroke-width="2" stroke-miterlimit="10" stroke-linecap="round" stroke-linejoin="round"/>
<path d="M529.218 194.93C529.218 194.93 527.553 60.6448 564.462 79.3256C601.094 98.0063 479.543 129.682 473.993 85.011C468.442 40.0689 519.782 107.753 503.132 198.179" stroke="white" stroke-width="2" stroke-miterlimit="10" stroke-linecap="round" stroke-linejoin="round"/>
<path d="M549.476 202.781H486.203C483.428 202.781 481.208 200.615 481.208 197.908C481.208 195.201 483.428 193.035 486.203 193.035H549.476C552.252 193.035 554.472 195.201 554.472 197.908C554.472 200.615 552.252 202.781 549.476 202.781Z" fill="#97A5B5"/>
<path d="M603.036 90.6965C603.036 90.6965 635.783 113.709 631.898 134.556C628.29 155.402 617.467 176.249 617.467 176.249L637.448 230.938H631.898L602.481 180.852C601.926 179.769 601.649 178.415 601.649 177.061V120.207V93.1332" fill="#334C57"/>
<path d="M601.649 91.2377L593.601 117.228L576.95 171.917C576.672 173 576.395 174.354 576.673 175.707L590.271 232.832H595.821L592.491 175.166C592.491 175.166 608.864 157.839 618.577 138.616C628.29 119.394 603.591 89.0718 603.591 89.0718" fill="#476978"/>
<path d="M590.271 232.833L578.338 242.309H593.046L593.878 239.33L594.988 242.309H596.931L596.099 232.833H590.271Z" fill="#9FDDFF"/>
<path d="M631.898 230.937L619.687 240.413H634.395L635.228 237.435L636.338 240.413H638.281L637.448 230.937H631.898Z" fill="#9FDDFF"/>
<path d="M604.701 53.8762L636.893 127.516L576.673 136.721L593.046 53.8762H604.701Z" fill="#0287EB"/>
<path d="M606.367 89.0718L621.075 129.953" stroke="#476978" stroke-width="2" stroke-miterlimit="10"/>
<path d="M598.041 103.691L593.878 134.014" stroke="#476978" stroke-width="2" stroke-miterlimit="10"/>
<path d="M600.816 44.6711L606.367 57.6665L593.046 56.8543L591.658 45.7541L600.816 44.6711Z" fill="#F0B291"/>
<path d="M602.482 45.2126C602.482 45.2126 600.539 52.5225 592.769 52.2518L592.214 48.1907L602.482 45.2126Z" fill="#DB9680"/>
<path d="M577.505 19.7635C577.505 19.7635 581.39 33.571 579.725 39.2565C579.725 39.2565 581.945 40.0687 583.888 38.715C583.888 38.715 583.888 43.3175 588.051 47.1078C589.438 48.1907 591.381 48.7322 593.046 48.7322L597.764 48.1907C599.429 47.92 601.094 47.1078 602.204 45.7541C604.702 42.776 608.864 36.8198 607.754 31.6759L604.979 28.6978C604.979 28.6978 607.754 20.305 603.592 19.7635C599.706 18.9513 599.429 22.4709 599.429 22.4709L595.544 12.1829C595.544 12.4536 581.945 6.76818 577.505 19.7635Z" fill="#F0B291"/>
<path d="M595.544 12.4537C595.544 12.4537 589.716 24.6368 569.18 24.0953C569.18 24.0953 559.467 19.7636 574.175 10.2878C574.175 10.2878 566.96 8.39266 571.955 5.6853C576.95 3.24868 592.768 -4.33192 600.816 3.79015C600.816 3.79015 612.194 -0.270885 614.415 17.0562C616.635 34.3833 607.754 34.654 607.754 34.654L604.979 28.4271C604.979 28.4271 608.587 20.8465 603.591 19.4928C598.874 18.1391 599.151 22.4709 599.151 22.4709C599.151 22.4709 593.601 20.5758 595.544 12.4537Z" fill="#21273D"/>
<path d="M579.725 39.2563C579.725 39.2563 583.056 36.549 584.998 37.6319C586.941 38.7149 583.888 38.7149 583.888 38.7149C583.888 38.7149 581.945 39.7978 579.725 39.2563Z" fill="#DB9680"/>
<path d="M586.941 40.8812C586.941 40.8812 591.658 43.3178 592.213 38.1738" stroke="#374475" stroke-width="0.2402" stroke-miterlimit="10"/>
<path d="M584.166 23.554C584.166 23.554 588.606 24.6369 588.883 26.5321C589.161 28.4272 582.5 24.9076 584.166 23.554Z" fill="#374475"/>
<path d="M585.553 28.6981C586.109 29.5105 586.109 30.3228 585.831 30.5936C585.276 30.8644 584.721 30.3228 584.166 29.5105C583.611 28.6981 583.61 27.8858 583.888 27.615C584.166 27.615 584.998 27.8858 585.553 28.6981Z" fill="#374475"/>
<path d="M598.041 57.1248L589.716 73.6397L593.046 53.876L598.041 57.1248Z" fill="#F0B291"/>
<path d="M595.266 71.2032C593.878 67.4129 595.544 63.0811 599.429 61.9982C601.649 61.186 604.424 61.7274 606.922 65.247C613.859 73.6398 623.295 102.067 614.692 107.753C606.089 113.438 566.682 115.604 566.682 115.604V108.565C566.682 108.565 605.257 105.857 606.089 100.443C606.644 96.3816 598.596 79.596 595.266 71.2032Z" fill="#005A9E"/>
<path d="M609.974 68.7666C617.745 87.4474 619.687 103.962 614.692 107.482C612.749 108.835 609.142 109.918 604.702 111.001" stroke="#476978" stroke-width="0.2883" stroke-miterlimit="10"/>
<path d="M598.596 78.7837C601.926 87.1765 606.644 96.1108 606.089 100.172C605.812 101.255 603.869 102.338 601.094 103.15L585.831 106.128" stroke="#476978" stroke-width="0.2883" stroke-miterlimit="10"/>
<path d="M566.96 110.189C566.96 110.189 563.075 106.67 559.467 106.399C555.859 106.128 552.529 105.316 551.974 105.587C551.419 106.128 556.969 108.836 556.969 108.836C556.969 108.836 550.864 110.189 544.204 108.294C544.204 108.294 543.094 116.145 552.807 116.416C562.519 116.687 566.405 113.438 566.405 113.438L566.96 110.189Z" fill="#F0B291"/>
<path opacity="0.94" d="M870.004 656.805C870.004 657.346 870.004 657.888 869.727 658.7C869.727 659.241 869.449 659.783 869.449 660.054C869.172 660.595 869.172 661.137 868.894 661.678C868.617 662.22 868.617 662.49 868.339 663.032C868.062 663.573 867.784 664.115 867.507 664.656C867.229 665.198 866.952 665.468 866.674 666.01C866.119 666.551 865.841 667.364 865.286 667.905C864.731 668.446 864.454 669.259 863.899 669.8C863.899 670.071 863.621 670.071 863.621 670.342C862.789 671.154 861.956 671.966 861.124 672.778C860.569 673.32 860.014 673.861 859.459 674.132C858.904 674.673 858.349 674.944 857.794 675.486C857.239 676.027 856.406 676.298 855.851 676.839C855.018 677.381 854.463 677.651 853.631 678.193C851.966 679.276 850.023 680.088 848.081 680.9C847.526 681.171 846.971 681.442 846.416 681.713C845.028 682.254 843.363 682.795 841.975 683.337C841.42 683.608 840.865 683.608 840.31 683.878C839.2 684.149 838.368 684.42 837.258 684.691C836.425 684.961 835.87 685.232 835.037 685.232C833.927 685.503 832.817 685.774 831.985 685.774C831.152 686.044 830.597 686.044 829.765 686.315C827.545 686.586 825.325 686.856 823.104 687.127C822.549 687.127 821.717 687.127 821.162 687.398C819.774 687.398 818.664 687.669 817.277 687.669C816.444 687.669 815.612 687.669 814.779 687.669C813.669 687.669 812.559 687.669 811.726 687.669C810.894 687.669 810.061 687.669 808.951 687.669C807.841 687.669 807.009 687.669 805.899 687.398C805.066 687.398 804.233 687.398 803.123 687.127C802.291 687.127 801.181 686.856 800.348 686.856C799.516 686.856 798.683 686.586 797.851 686.586C796.741 686.315 795.908 686.315 794.798 686.044C793.965 685.774 793.133 685.774 792.3 685.503C791.19 685.232 789.803 684.961 788.693 684.691C788.138 684.42 787.305 684.42 786.75 684.149C784.53 683.608 782.587 682.795 780.645 681.983C779.535 681.712 778.702 681.171 777.592 680.9C777.037 680.63 776.482 680.359 776.205 680.359C774.817 679.817 773.43 679.005 772.042 678.193C760.664 671.695 755.114 663.302 755.114 654.91V677.381C755.114 685.774 760.664 694.166 772.042 700.664C773.43 701.476 774.817 702.018 776.205 702.83C776.76 703.101 777.315 703.371 777.592 703.371C778.425 703.642 779.257 704.184 780.09 704.454H780.367C782.31 705.267 784.53 705.808 786.473 706.62C786.75 706.62 786.75 706.62 787.028 706.891C787.583 706.891 788.138 707.162 788.415 707.162C789.525 707.432 790.913 707.703 792.023 707.974C792.3 707.974 792.578 708.245 792.855 708.245C793.411 708.245 793.688 708.515 794.243 708.515C795.353 708.786 796.186 708.786 797.296 709.057C797.573 709.057 798.128 709.328 798.406 709.328C798.961 709.328 799.238 709.328 799.793 709.598C800.626 709.598 801.736 709.869 802.568 709.869C803.123 709.869 803.401 709.869 803.956 710.14C804.511 710.14 804.789 710.14 805.344 710.14C806.454 710.14 807.286 710.14 808.396 710.41C808.951 710.41 809.506 710.41 809.784 710.41C810.061 710.41 810.616 710.41 810.894 710.41C812.004 710.41 813.114 710.41 813.946 710.41C814.501 710.41 815.057 710.41 815.612 710.41C815.889 710.41 816.167 710.41 816.444 710.41C817.832 710.41 818.942 710.14 820.329 710.14C820.884 710.14 821.439 710.14 821.994 710.14C822.272 710.14 822.272 710.14 822.549 710.14C824.769 709.869 826.99 709.598 829.21 709.328H829.487C830.042 709.328 830.597 709.057 831.43 709.057C832.54 708.786 833.65 708.515 834.76 708.515C835.592 708.245 836.148 708.245 836.98 707.974C838.09 707.703 838.923 707.432 840.033 707.162C840.31 707.162 840.588 707.162 840.588 706.891C840.865 706.891 841.143 706.62 841.698 706.62C843.363 706.079 844.75 705.537 846.138 704.996C846.693 704.725 847.248 704.454 847.803 704.184C849.746 703.371 851.411 702.559 853.353 701.476C853.631 701.476 853.908 701.205 854.186 701.205C854.741 700.935 855.296 700.664 855.573 700.123C856.406 699.581 856.961 699.31 857.516 698.769C858.071 698.498 858.626 697.957 859.181 697.415C859.736 696.874 860.291 696.603 860.846 696.062L861.124 695.791C861.956 695.249 862.511 694.437 863.066 693.625C863.066 693.354 863.344 693.354 863.344 693.083C863.621 692.542 864.176 692.271 864.454 691.73C864.731 691.459 864.731 691.459 864.731 691.188C865.286 690.647 865.564 689.835 866.119 689.293C866.397 689.022 866.396 688.752 866.674 688.481C866.674 688.21 866.674 688.21 866.952 687.939C867.229 687.398 867.507 686.856 867.784 686.315C868.062 686.044 868.062 685.503 868.339 685.232V684.961C868.617 684.42 868.617 683.878 868.894 683.337C868.894 683.066 869.172 682.525 869.172 682.254V681.983C869.172 681.442 869.449 680.9 869.449 680.088C869.449 679.817 869.449 679.276 869.449 679.005C869.449 678.734 869.449 678.734 869.449 678.464V655.993C870.282 655.722 870.004 656.263 870.004 656.805Z" fill="#0F5394"/>
<path opacity="0.94" d="M853.076 631.897C875.554 644.622 875.832 665.197 853.353 677.922C830.875 690.647 794.52 690.647 771.764 677.922C749.286 665.197 749.008 644.622 771.487 631.897C793.965 619.172 830.597 619.172 853.076 631.897Z" fill="#19AFE3"/>
<path d="M870.004 616.195C870.004 616.736 870.004 617.277 869.727 618.09C869.727 618.631 869.449 619.173 869.449 619.443C869.172 619.985 869.172 620.526 868.894 621.068C868.617 621.609 868.617 621.88 868.339 622.421C868.062 622.963 867.784 623.504 867.507 624.046C867.229 624.587 866.952 624.858 866.674 625.4C866.119 625.941 865.841 626.753 865.286 627.295C864.731 627.836 864.454 628.648 863.899 629.19C863.899 629.461 863.621 629.461 863.621 629.731C862.789 630.544 861.956 631.356 861.124 632.168C860.569 632.709 860.014 633.251 859.459 633.522C858.904 634.063 858.349 634.334 857.794 634.875C857.239 635.417 856.406 635.688 855.851 636.229C855.018 636.77 854.463 637.041 853.631 637.583C851.966 638.666 850.023 639.478 848.081 640.29C847.526 640.561 846.971 640.832 846.416 641.102C845.028 641.644 843.363 642.185 841.975 642.727C841.42 642.997 840.865 642.997 840.31 643.268C839.2 643.539 838.368 643.81 837.258 644.08C836.425 644.351 835.87 644.622 835.037 644.622C833.927 644.893 832.817 645.163 831.985 645.163C831.152 645.434 830.597 645.434 829.765 645.705C827.545 645.976 825.325 646.246 823.104 646.517C822.549 646.517 821.717 646.517 821.162 646.788C819.774 646.788 818.664 647.058 817.277 647.058C816.444 647.058 815.612 647.058 814.779 647.058C813.669 647.058 812.559 647.058 811.726 647.058C810.894 647.058 810.061 647.058 808.951 647.058C807.841 647.058 807.009 647.058 805.899 646.788C805.066 646.788 804.233 646.788 803.123 646.517C802.291 646.517 801.181 646.246 800.348 646.246C799.516 646.246 798.683 645.976 797.851 645.976C796.741 645.705 795.908 645.705 794.798 645.434C793.965 645.163 793.133 645.163 792.3 644.893C791.19 644.622 789.803 644.351 788.693 644.08C788.138 643.81 787.305 643.81 786.75 643.539C784.53 642.997 782.587 642.185 780.645 641.373C779.535 641.102 778.702 640.561 777.592 640.29C777.037 640.019 776.482 639.749 776.205 639.749C774.817 639.207 773.43 638.395 772.042 637.583C760.664 631.085 755.114 622.692 755.114 614.299V636.77C755.114 645.163 760.664 653.556 772.042 660.054C773.43 660.866 774.817 661.407 776.205 662.22C776.76 662.49 777.315 662.761 777.592 662.761C778.425 663.032 779.257 663.573 780.09 663.844H780.367C782.31 664.656 784.53 665.198 786.473 666.01C786.75 666.01 786.75 666.01 787.028 666.281C787.583 666.281 788.138 666.551 788.415 666.551C789.525 666.822 790.913 667.093 792.023 667.364C792.3 667.364 792.578 667.634 792.855 667.634C793.411 667.634 793.688 667.905 794.243 667.905C795.353 668.176 796.186 668.176 797.296 668.447C797.573 668.447 798.128 668.717 798.406 668.717C798.961 668.717 799.238 668.717 799.793 668.988C800.626 668.988 801.736 669.259 802.568 669.259C803.123 669.259 803.401 669.259 803.956 669.53C804.511 669.53 804.789 669.53 805.344 669.53C806.454 669.53 807.286 669.53 808.396 669.8C808.951 669.8 809.506 669.8 809.784 669.8C810.061 669.8 810.616 669.8 810.894 669.8C812.004 669.8 813.114 669.8 813.946 669.8C814.501 669.8 815.057 669.8 815.612 669.8C815.889 669.8 816.167 669.8 816.444 669.8C817.832 669.8 818.942 669.53 820.329 669.53C820.884 669.53 821.439 669.53 821.994 669.53C822.272 669.53 822.272 669.53 822.549 669.53C824.769 669.259 826.99 668.988 829.21 668.717H829.487C830.042 668.717 830.597 668.447 831.43 668.447C832.54 668.176 833.65 667.905 834.76 667.905C835.592 667.634 836.148 667.634 836.98 667.364C838.09 667.093 838.923 666.822 840.033 666.551C840.31 666.551 840.588 666.551 840.588 666.281C840.865 666.281 841.143 666.01 841.698 666.01C843.363 665.469 844.75 664.927 846.138 664.386C846.693 664.115 847.248 663.844 847.803 663.573C849.746 662.761 851.411 661.949 853.353 660.866C853.631 660.866 853.908 660.595 854.186 660.595C854.741 660.325 855.296 660.054 855.573 659.512C856.406 658.971 856.961 658.7 857.516 658.159C858.071 657.888 858.626 657.346 859.181 656.805C859.736 656.264 860.291 655.993 860.846 655.451L861.124 655.181C861.956 654.639 862.511 653.827 863.066 653.015C863.066 652.744 863.344 652.744 863.344 652.473C863.621 651.932 864.176 651.661 864.454 651.119C864.731 650.849 864.731 650.849 864.731 650.578C865.286 650.037 865.564 649.224 866.119 648.683C866.397 648.412 866.396 648.141 866.674 647.871C866.674 647.6 866.674 647.6 866.952 647.329C867.229 646.788 867.507 646.246 867.784 645.705C868.062 645.434 868.062 644.893 868.339 644.622V644.351C868.617 643.81 868.617 643.268 868.894 642.727C868.894 642.456 869.172 641.914 869.172 641.644V641.373C869.172 640.831 869.449 640.29 869.449 639.478C869.449 639.207 869.449 638.666 869.449 638.395C869.449 638.124 869.449 638.124 869.449 637.853V615.382C870.282 615.112 870.004 615.653 870.004 616.195Z" fill="#0F5394"/>
<path d="M853.076 591.287C875.554 604.011 875.832 624.587 853.353 637.312C830.875 650.036 794.52 650.036 771.764 637.312C749.286 624.587 749.008 604.011 771.487 591.287C793.965 578.562 830.597 578.562 853.076 591.287Z" fill="#009FE2"/>
<path d="M784.53 583.436C784.53 583.436 812.559 534.432 820.884 552.842C829.209 571.252 803.956 590.204 803.956 590.204L784.53 583.436Z" fill="#334C57"/>
<path d="M784.53 552.572C784.53 552.572 774.817 568.003 770.377 565.838C765.937 563.942 745.401 565.025 754.004 545.262C762.329 525.498 784.53 505.193 784.53 505.193C784.53 505.193 782.588 491.115 784.53 485.158C786.473 479.202 789.248 495.446 789.248 495.446C789.248 495.446 796.186 494.093 796.186 496.8C796.186 499.507 789.803 505.193 789.803 505.193L783.42 520.083L784.53 552.572Z" fill="#F0B291"/>
<path d="M775.094 603.74L780.09 596.701L788.693 603.74L783.42 611.05L775.094 603.74Z" fill="#42C7A9"/>
<path d="M780.645 607.26C780.645 607.26 770.655 595.077 763.717 598.597C756.779 602.116 773.707 611.051 773.707 611.051C773.707 611.051 783.143 622.963 786.75 615.653C790.913 608.343 780.645 607.26 780.645 607.26Z" fill="#37424F"/>
<path d="M854.464 596.16C854.464 596.16 860.846 625.941 835.315 627.565C809.784 629.19 755.669 596.16 748.731 569.357C741.793 542.825 804.234 585.872 804.234 585.872L854.464 596.16Z" fill="#476978"/>
<path d="M797.573 493.28L796.186 510.607C796.186 510.607 813.114 516.564 816.999 505.463L813.114 494.092L797.573 493.28Z" fill="#F0B291"/>
<path d="M808.951 498.966C808.951 498.966 805.899 509.254 796.741 506.276L797.296 497.612L808.951 498.966Z" fill="#DB9680"/>
<path d="M802.568 467.831C800.071 471.622 795.076 477.307 787.305 478.119C786.75 478.119 786.473 478.932 787.028 479.202L790.358 482.18C790.358 482.18 781.755 495.446 794.52 498.425C807.286 501.403 820.052 502.756 825.602 485.7C830.042 472.163 824.214 461.063 813.946 461.334C809.506 461.334 805.344 464.041 802.568 467.831Z" fill="#F0B291"/>
<path d="M802.569 467.831C802.569 467.831 794.243 469.185 796.186 461.063C798.406 452.941 814.502 459.709 814.502 459.709C814.502 459.709 818.109 449.421 824.77 459.168C831.43 469.185 828.1 472.975 828.1 472.975C828.1 472.975 832.263 500.049 808.674 500.049C808.674 500.049 800.348 496.259 806.731 486.783C810.616 481.097 808.674 480.015 806.454 480.015C803.401 480.015 800.071 478.932 798.406 476.495C796.741 474.329 796.463 471.08 802.569 467.831Z" fill="black"/>
<path d="M848.358 524.957C848.358 524.957 867.229 551.218 864.454 569.086C861.679 586.955 841.143 560.964 841.143 560.964L835.315 527.935L848.358 524.957Z" fill="#F0B291"/>
<path d="M816.999 505.464C816.999 505.464 833.65 504.922 853.353 527.122L841.143 534.974L816.999 505.464Z" fill="#37424F"/>
<path d="M816.999 505.463C816.999 505.463 861.956 543.637 854.463 596.159C854.463 596.159 820.329 609.425 804.233 586.142L791.468 552.571L781.2 561.776C781.2 561.776 760.664 555.008 762.329 544.178C763.994 533.349 796.463 509.253 796.463 509.253C796.463 509.253 807.841 511.419 816.999 505.463Z" fill="#37424F"/>
<path d="M791.468 552.572L795.908 546.616" stroke="white" stroke-width="0.2211" stroke-miterlimit="10"/>
<path d="M841.975 545.262C841.975 545.262 853.076 572.606 850.023 590.204" stroke="white" stroke-width="0.2211" stroke-miterlimit="10"/>
<path d="M816.999 509.796C816.999 509.796 812.836 514.94 801.736 514.669" stroke="white" stroke-width="0.2211" stroke-miterlimit="10"/>
<path d="M839.755 533.35L826.157 514.398" stroke="white" stroke-width="0.2211" stroke-miterlimit="10"/>
<path d="M787.028 479.473C787.028 479.473 790.636 479.744 790.358 482.452L787.028 479.473Z" fill="#DB9680"/>
<path d="M789.803 486.242C789.803 486.242 790.913 489.491 793.966 487.325" stroke="#37424F" stroke-width="0.3144" stroke-miterlimit="10"/>
<path d="M796.186 478.932C796.186 480.015 796.463 480.827 797.019 480.827C797.574 480.827 797.851 480.015 797.851 478.932C797.851 477.849 797.574 477.036 797.019 477.036C796.463 477.036 796.186 477.849 796.186 478.932Z" fill="#37424F"/>
<path opacity="0.94" d="M891.095 66.8715C888.875 66.8715 886.655 67.1423 884.435 67.6837C885.267 65.2471 885.823 62.8105 885.823 60.1031C885.823 47.6493 875.554 37.6321 862.789 37.6321C850.023 37.6321 839.755 47.6493 839.755 60.1031C839.755 62.5398 840.033 64.7057 840.865 66.8715C840.033 66.8715 839.2 66.8715 838.368 66.8715C825.602 66.8715 815.334 76.8888 815.334 89.3426C815.334 100.984 824.492 110.46 835.87 111.814C836.703 111.814 837.535 111.814 838.368 111.814C839.2 111.814 840.033 111.814 840.588 111.814H891.095C903.861 111.814 914.129 101.796 914.129 89.3426C914.129 76.8888 903.861 66.8715 891.095 66.8715Z" fill="#9FDDFF"/>
<path d="M51.0624 242.038L0.83252 208.467" stroke="#4D4D4D" stroke-width="3" stroke-miterlimit="10"/>
<path d="M261.418 272.901L257.255 323.529C256.7 328.673 251.982 332.193 246.987 331.38L234.221 329.485C228.671 328.673 225.341 322.717 227.561 317.573C231.724 308.097 235.886 292.665 231.446 275.338C231.169 273.714 232.279 272.36 233.666 272.089L258.642 270.194C260.307 269.923 261.695 271.277 261.418 272.901Z" fill="#0F5394"/>
<path d="M107.675 294.29H129.599V245.828H107.675C94.077 245.828 82.6989 256.658 82.6989 270.194C82.6989 283.46 94.077 294.29 107.675 294.29Z" fill="#19AFE3"/>
<path d="M220.623 225.252C220.623 225.252 192.317 229.313 121.273 196.554C121.273 196.554 107.12 190.598 102.957 204.135C98.7947 217.671 106.843 331.38 124.881 338.42C124.881 338.42 133.484 338.42 148.192 324.612C162.9 310.805 200.365 281.565 207.857 279.399L220.623 225.252Z" fill="#9FDDFF"/>
<path d="M102.957 203.864C106.288 192.764 116.278 194.659 119.886 195.742C117.111 196.825 114.613 199.261 113.225 203.864C109.34 216.588 116.278 318.114 132.096 335.983C127.656 338.419 124.881 338.419 124.881 338.419C106.843 331.11 98.7947 217.671 102.957 203.864Z" fill="#0F5394"/>
<path d="M208.135 280.212H246.432C261.973 280.212 274.738 267.758 274.738 252.597C274.738 237.436 261.973 224.982 246.432 224.982H208.135V280.212Z" fill="#19AFE3"/>
<path d="M228.671 241.767H259.752C261.14 241.767 262.528 240.684 262.528 239.06C262.528 237.706 261.417 236.352 259.752 236.352H228.671C227.283 236.352 225.896 237.435 225.896 239.06C226.173 240.684 227.283 241.767 228.671 241.767Z" stroke="white" stroke-width="0.3645" stroke-miterlimit="10"/>
<path d="M228.671 252.597H259.752C261.14 252.597 262.528 251.514 262.528 249.889C262.528 248.536 261.417 247.182 259.752 247.182H228.671C227.283 247.182 225.896 248.265 225.896 249.889C226.173 251.243 227.283 252.597 228.671 252.597Z" stroke="white" stroke-width="0.3645" stroke-miterlimit="10"/>
<path d="M228.671 265.05H259.752C261.14 265.05 262.528 263.967 262.528 262.343C262.528 260.989 261.417 259.635 259.752 259.635H228.671C227.283 259.635 225.896 260.718 225.896 262.343C226.173 263.967 227.283 265.05 228.671 265.05Z" stroke="white" stroke-width="0.3645" stroke-miterlimit="10"/>
<path opacity="0.94" d="M195.924 239.06C195.924 239.06 152.91 238.789 122.106 211.445" stroke="white" stroke-width="0.5645" stroke-miterlimit="10" stroke-linecap="round" stroke-linejoin="round"/>
<path opacity="0.94" d="M98.7948 256.387C98.7948 256.387 85.1966 262.614 91.0244 278.587" stroke="white" stroke-width="0.5645" stroke-miterlimit="10" stroke-linecap="round" stroke-linejoin="round"/>
<path opacity="0.94" d="M170.116 243.391C170.116 243.391 147.637 241.225 136.259 229.854" stroke="white" stroke-width="0.5645" stroke-miterlimit="10" stroke-linecap="round" stroke-linejoin="round"/>
<path opacity="0.94" d="M255.035 291.041L252.537 317.573C252.26 321.363 248.929 324.341 245.044 324.341C241.159 324.341 236.164 323.8 233.389 321.634" stroke="white" stroke-width="0.5645" stroke-miterlimit="10" stroke-linecap="round" stroke-linejoin="round"/>
<path d="M69.9334 269.923H8.32541" stroke="#4D4D4D" stroke-width="3" stroke-miterlimit="10"/>
<path d="M51.0624 303.765L16.3733 337.607" stroke="#4D4D4D" stroke-width="3" stroke-miterlimit="10"/>
<path d="M954.198 370.238C970.359 332.91 952.443 289.868 914.181 274.102C875.918 258.335 831.799 275.814 815.638 313.142C799.477 350.469 817.393 393.511 855.655 409.278C893.917 425.044 938.036 407.565 954.198 370.238Z" fill="#19AFE3"/>
<path opacity="0.94" d="M884.99 398.523C917.176 398.523 943.268 373.068 943.268 341.668C943.268 310.269 917.176 284.814 884.99 284.814C852.804 284.814 826.712 310.269 826.712 341.668C826.712 373.068 852.804 398.523 884.99 398.523Z" stroke="white" stroke-width="1.1283" stroke-miterlimit="10"/>
<path opacity="0.94" d="M884.99 380.383C906.907 380.383 924.674 363.05 924.674 341.668C924.674 320.286 906.907 302.953 884.99 302.953C863.073 302.953 845.306 320.286 845.306 341.668C845.306 363.05 863.073 380.383 884.99 380.383Z" stroke="white" stroke-width="1.1283" stroke-miterlimit="10"/>
<path d="M901.086 341.668C901.086 350.332 893.87 357.371 884.99 357.371C876.109 357.371 868.894 350.332 868.894 341.668C868.894 333.005 876.109 325.966 884.99 325.966C893.87 325.966 901.086 333.005 901.086 341.668Z" fill="#0F5394"/>
<path d="M890.54 341.668C890.54 344.646 888.043 347.083 884.99 347.083C881.937 347.083 879.44 344.646 879.44 341.668C879.44 338.69 881.937 336.254 884.99 336.254C888.043 336.254 890.54 338.69 890.54 341.668Z" fill="black"/>
<path d="M827.826 279.032L831.345 251.226C831.374 250.143 831.118 249.324 830.308 248.491L808.65 227.899C807.028 226.233 804.233 226.974 803.342 229.118L797.083 245.208L827.826 279.032Z" stroke="#476978" stroke-width="2" stroke-miterlimit="10"/>
<path d="M825.64 276.943L797.218 280.138C796.1 280.375 795.285 279.808 794.47 279.241L773.78 257.752C772.168 256.078 772.809 253.389 775.055 252.645L796.942 245.458L825.64 276.943Z" stroke="#476978" stroke-width="2" stroke-miterlimit="10"/>
<path d="M796.741 245.287L884.99 341.668" stroke="#476978" stroke-width="2.5155" stroke-miterlimit="10" stroke-linecap="round"/>
<path d="M884.99 251.784L857.793 200.073" stroke="#476978" stroke-width="3" stroke-miterlimit="10" stroke-linecap="round" stroke-linejoin="round"/>
<path d="M910.244 255.033L924.674 225.793" stroke="#476978" stroke-width="3" stroke-miterlimit="10" stroke-linecap="round" stroke-linejoin="round"/>
<path d="M942.99 265.321L989.89 221.191" stroke="#476978" stroke-width="3" stroke-miterlimit="10" stroke-linecap="round" stroke-linejoin="round"/>
</g>
<defs>
<clipPath id="clip0">
<rect width="991" height="775.387" fill="white"/>
</clipPath>
</defs>
</svg>
